0
SECTION
2
HEADER
9
$INSUNITS
70
1
9
$ACADVER
1
AC1014
9
$HANDSEED
5
FFFF
0
ENDSEC
0
SECTION
2
TABLES
0
TABLE
2
VPORT
5
8
100
AcDbSymbolTable
0
ENDTAB
0
TABLE
2
LTYPE
5
5
100
AcDbSymbolTable
0
LTYPE
5
14
100
AcDbSymbolTableRecord
100
AcDbLinetypeTableRecord
2
BYBLOCK
70
0
0
LTYPE
5
15
100
AcDbSymbolTableRecord
100
AcDbLinetypeTableRecord
2
BYLAYER
70
0
0
ENDTAB
0
TABLE
2
LAYER
5
2
100
AcDbSymbolTable
70
2
0
LAYER
5
50
100
AcDbSymbolTableRecord
100
AcDbLayerTableRecord
2
0
70
0
6
CONTINUOUS
0
ENDTAB
0
TABLE
2
STYLE
5
3
100
AcDbSymbolTable
70
1
0
STYLE
5
11
100
AcDbSymbolTableRecord
100
AcDbTextStyleTableRecord
2
STANDARD
70
0
0
ENDTAB
0
TABLE
2
VIEW
5
6
100
AcDbSymbolTable
70
0
0
ENDTAB
0
TABLE
2
UCS
5
7
100
AcDbSymbolTable
70
0
0
ENDTAB
0
TABLE
2
APPID
5
9
100
AcDbSymbolTable
70
2
0
APPID
5
12
100
AcDbSymbolTableRecord
100
AcDbRegAppTableRecord
2
ACAD
70
0
0
ENDTAB
0
TABLE
2
DIMSTYLE
5
A
100
AcDbSymbolTable
70
1
0
ENDTAB
0
TABLE
2
BLOCK_RECORD
5
1
100
AcDbSymbolTable
70
1
0
BLOCK_RECORD
5
1F
100
AcDbSymbolTableRecord
100
AcDbBlockTableRecord
2
*MODEL_SPACE
0
BLOCK_RECORD
5
1B
100
AcDbSymbolTableRecord
100
AcDbBlockTableRecord
2
*PAPER_SPACE
0
ENDTAB
0
ENDSEC
0
SECTION
2
BLOCKS
0
BLOCK
5
20
100
AcDbEntity
100
AcDbBlockBegin
2
*MODEL_SPACE
0
ENDBLK
5
21
100
AcDbEntity
100
AcDbBlockEnd
0
BLOCK
5
1C
100
AcDbEntity
100
AcDbBlockBegin
2
*PAPER_SPACE
0
ENDBLK
5
1D
100
AcDbEntity
100
AcDbBlockEnd
0
ENDSEC
0
SECTION
2
ENTITIES
0
SPLINE
5
100
100
AcDbEntity
8
0
100
AcDbSpline
70
0
71
3
72
8
73
4
74
0
42
0.000000001
43
0.0000000001
44
0.0000000001
40
0
40
0
40
0
40
0
40
0.34865294727801172
40
0.34865294727801172
40
0.34865294727801172
40
0.34865294727801172
10
1.3752710352129789
20
-6.4970623485029613
30
0
10
2.0053310615054345
20
-6.8575172766627412
30
0
10
2.6921249377358034
20
-6.8750887735786046
30
0
10
3.3418566153347116
20
-6.6900850393968412
30
0
0
SPLINE
5
101
100
AcDbEntity
8
0
100
AcDbSpline
70
0
71
3
72
14
73
10
74
0
42
0.000000001
43
0.0000000001
44
0.0000000001
40
0
40
0
40
0
40
0
40
0.026493888184090215
40
0.052987776368180431
40
0.10597555273636086
40
0.15896332910454131
40
0.21195110547272172
40
0.31792665820908261
40
0.42390221094544345
40
0.42390221094544345
40
0.42390221094544345
40
0.42390221094544345
10
4.0297156841711743
20
-7.0713902583300445
30
0
10
3.9715363121728782
20
-7.0933239449391312
30
0
10
3.8538637330955572
20
-7.1344061218861752
30
0
10
3.6137870896485174
20
-7.2056407049801505
30
0
10
3.3071727331048413
20
-7.2721495337454449
30
0
10
2.9375585777392397
20
-7.3071991818991693
30
0
10
2.4540078888773147
20
-7.2829384503847399
30
0
10
1.8885992335157193
20
-7.0981436952055503
30
0
10
1.5240567907675648
20
-6.7400492444872828
30
0
10
1.3752710352129789
20
-6.4970623485029613
30
0
0
SPLINE
5
102
100
AcDbEntity
8
0
100
AcDbSpline
70
0
71
3
72
16
73
12
74
0
42
0.000000001
43
0.0000000001
44
0.0000000001
40
0.56667089201987864
40
0.56667089201987864
40
0.56667089201987864
40
0.56667089201987864
40
0.72916930751242415
40
0.78333544600993932
40
0.83750158450745449
40
0.89166772300496966
40
0.91875079225372724
40
0.94583386150248483
40
0.95937539612686362
40
0.97291693075124241
40
1
40
1
40
1
40
1
10
6.7122541229173383
20
-7.3412570877446415
30
0
10
6.4408583832949597
20
-7.5024111928577941
30
0
10
5.9555106546735006
20
-7.6402562264644622
30
0
10
5.3148583080565865
20
-7.6457542904912605
30
0
10
4.9374605023441136
20
-7.5951679746500727
30
0
10
4.6431119999058135
20
-7.5049050632959693
30
0
10
4.4283120311625526
20
-7.4019106704289355
30
0
10
4.3044749139391829
20
-7.3243079237340005
30
0
10
4.2127107142408322
20
-7.254057175411166
30
0
10
4.1262304229513562
20
-7.1782451398204516
30
0
10
4.0670313231202968
20
-7.1154781510531615
30
0
10
4.0297156841711752
20
-7.0713902583300472
30
0
0
SPLINE
5
103
100
AcDbEntity
8
0
100
AcDbSpline
70
0
71
3
72
8
73
4
74
0
42
0.000000001
43
0.0000000001
44
0.0000000001
40
0.65205560819637287
40
0.65205560819637287
40
0.65205560819637287
40
0.65205560819637287
40
1
40
1
40
1
40
1
10
4.8367915536897224
20
-6.8623852487242019
30
0
10
5.2447915317782314
20
-7.3394050070831724
30
0
10
5.5855916708618611
20
-7.3794425476741363
30
0
10
6.7122541229173383
20
-7.3412570877446415
30
0
0
SPLINE
5
104
100
AcDbEntity
8
0
100
AcDbSpline
70
0
71
3
72
8
73
4
74
0
42
0.000000001
43
0.0000000001
44
0.0000000001
40
0.58261918910172739
40
0.58261918910172739
40
0.58261918910172739
40
0.58261918910172739
40
1
40
1
40
1
40
1
10
6.7422572746746985
20
-4.9470055775071913
30
0
10
7.050257200220436
20
-6.7760246334271512
30
0
10
5.9094849420874871
20
-6.8776366174780748
30
0
10
4.8367915536897224
20
-6.8623852487242019
30
0
0
SPLINE
5
105
100
AcDbEntity
8
0
100
AcDbSpline
70
0
71
3
72
12
73
8
74
0
42
0.000000001
43
0.0000000001
44
0.0000000001
40
0.65881897679130474
40
0.65881897679130474
40
0.65881897679130474
40
0.65881897679130474
40
0.70146660469239164
40
0.74411423259347864
40
0.82940948839565243
40
0.91470474419782621
40
1
40
1
40
1
40
1
10
5.2445370890200849
20
-6.2925923923540035
30
0
10
5.3319044277343091
20
-6.2756390541274216
30
0
10
5.5060915533609238
20
-6.2313873326574463
30
0
10
5.8448847947349742
20
-6.1015387438228519
30
0
10
6.2329400837687121
20
-5.8643364151798458
30
0
10
6.5880939410842005
20
-5.4667977073208593
30
0
10
6.7151528644104186
20
-5.131241228515135
30
0
10
6.7422572746746985
20
-4.9470055775071913
30
0
0
SPLINE
5
106
100
AcDbEntity
8
0
100
AcDbSpline
70
0
71
3
72
14
73
10
74
0
42
0.000000001
43
0.0000000001
44
0.0000000001
40
0.63298966879192742
40
0.63298966879192742
40
0.63298966879192742
40
0.63298966879192742
40
0.72474225159394556
40
0.77061854299495458
40
0.81649483439596371
40
0.86237112579697284
40
0.90824741719798185
40
0.95412370859899087
40
1
40
1
40
1
40
1
10
5.6118979006584233
20
-3.9925370744551012
30
0
10
5.7718402781180647
20
-4.1840326220771979
30
0
10
5.9119707020524874
20
-4.4869841587986983
30
0
10
5.9418044921098456
20
-4.8988198979134596
30
0
10
5.8963151742264595
20
-5.2057686975626432
30
0
10
5.7936050349179888
20
-5.5049075967940366
30
0
10
5.6442984882185687
20
-5.790368807887015
30
0
10
5.4590925361976375
20
-6.0562318237142501
30
0
10
5.3186392986786002
20
-6.2165928235904762
30
0
10
5.2445370890200849
20
-6.2925923923540035
30
0
0
SPLINE
5
107
100
AcDbEntity
8
0
100
AcDbSpline
70
0
71
3
72
8
73
4
74
0
42
0.000000001
43
0.0000000001
44
0.0000000001
40
0.54305612569375128
40
0.54305612569375128
40
0.54305612569375128
40
0.54305612569375128
40
1
40
1
40
1
40
1
10
4.3767314136921573
20
-6.2146114800937005
30
0
10
5.1291868804230978
20
-5.7250612072632796
30
0
10
5.6887150201570673
20
-4.9737277742158277
30
0
10
5.6118979006584233
20
-3.9925370744551003
30
0
0
SPLINE
5
108
100
AcDbEntity
8
0
100
AcDbSpline
70
0
71
3
72
16
73
12
74
0
42
0.000000001
43
0.0000000001
44
0.0000000001
40
0
40
0
40
0
40
0
40
0.1913508234609238
40
0.25513443128123175
40
0.31891803910153971
40
0.3827016469218476
40
0.41459345083200161
40
0.44648525474215556
40
0.46243115669723256
40
0.47837705865230951
40
0.51026886256246351
40
0.51026886256246351
40
0.51026886256246351
40
0.51026886256246351
10
3.4599124724193473
20
-3.5788618573715052
30
0
10
3.3441970841559119
20
-3.9813496581855827
30
0
10
3.3811720382911195
20
-4.4532298997382043
30
0
10
3.6032871044127699
20
-4.9882619283724319
30
0
10
3.7750379447484783
20
-5.2981486446186805
30
0
10
3.9383248161596964
20
-5.5515388258517246
30
0
10
4.0739092532844108
20
-5.7539967860095356
30
0
10
4.1592217377640939
20
-5.8809838020163383
30
0
10
4.2269320587951196
20
-5.9831680365475064
30
0
10
4.2939508505120569
20
-6.0858864951211586
30
0
10
4.3436330677713668
20
-6.1632286014767406
30
0
10
4.3767314136921573
20
-6.2146114800937005
30
0
0
SPLINE
5
109
100
AcDbEntity
8
0
100
AcDbSpline
70
0
71
3
72
15
73
11
74
0
42
0.000000001
43
0.0000000001
44
0.0000000001
40
0
40
0
40
0
40
0
40
0.025300877000787494
40
0.050601754001574989
40
0.075902631002362483
40
0.10120350800314998
40
0.15180526200472497
40
0.20240701600629996
40
0.25300877000787492
40
0.40481403201259991
40
0.40481403201259991
40
0.40481403201259991
40
0.40481403201259991
10
3.5160826491814494
20
-6.1202993078379038
30
0
10
3.4934850768780978
20
-6.0665401365244138
30
0
10
3.4482734521513358
20
-5.9590608680126769
30
0
10
3.379522095792177
20
-5.7993243281267963
30
0
10
3.3121118909496636
20
-5.64068465474426
30
0
10
3.2265627981132874
20
-5.4303853309746959
30
0
10
3.1327564003321315
20
-5.1692114237712605
30
0
10
3.0570585746274217
20
-4.8567349622711955
30
0
10
3.0188132901619222
20
-4.3344968358644813
30
0
10
3.171220996670761
20
-3.9096068819787653
30
0
10
3.4599124724193473
20
-3.5788618573715052
30
0
0
SPLINE
5
110
100
AcDbEntity
8
0
100
AcDbSpline
70
0
71
3
72
8
73
4
74
0
42
0.000000001
43
0.0000000001
44
0.0000000001
40
0
40
0
40
0
40
0
40
0.3785476137337338
40
0.3785476137337338
40
0.3785476137337338
40
0.3785476137337338
10
1.8247407016431436
20
-4.6019693322975339
30
0
10
2.078596627814461
20
-5.457329070485935
30
0
10
2.7592572416110857
20
-5.8778845782288007
30
0
10
3.5160826491814485
20
-6.120299307837902
30
0
0
SPLINE
5
111
100
AcDbEntity
8
0
100
AcDbSpline
70
0
71
3
72
16
73
12
74
0
42
0.000000001
43
0.0000000001
44
0.0000000001
40
0
40
0
40
0
40
0
40
0.023807082462839239
40
0.047614164925678479
40
0.071421247388517711
40
0.095228329851356958
40
0.14284249477703542
40
0.19045665970271392
40
0.23807082462839238
40
0.28568498955407085
40
0.38091331940542783
40
0.38091331940542783
40
0.38091331940542783
40
0.38091331940542783
10
3.3418566153347116
20
-6.6900850393968412
30
0
10
3.2849988772479919
20
-6.673279902180572
30
0
10
3.171670903434566
20
-6.6363354394100593
30
0
10
3.0024263218997826
20
-6.5696777671564153
30
0
10
2.8353104190581417
20
-6.4916669754858516
30
0
10
2.618330904654965
20
-6.3730939126979615
30
0
10
2.3631843853162464
20
-6.1983476390106036
30
0
10
2.0994833150004912
20
-5.9488805366840918
30
0
10
1.8949673953634327
20
-5.6622932730421009
30
0
10
1.7234877528175434
20
-5.2342274836059621
30
0
10
1.7338146583647362
20
-4.8654695151858878
30
0
10
1.8247407016431436
20
-4.6019693322975339
30
0
0
CIRCLE
5
112
100
AcDbEntity
8
0
100
AcDbCircle
10
4.0297156841711743
20
-6.8213902583300445
30
0
40
0.074750000000000066
210
0
220
0
230
1
0
CIRCLE
5
113
100
AcDbEntity
8
0
100
AcDbCircle
10
4.0297156841711743
20
-6.1963902583300445
30
0
40
0.074750000000000066
210
0
220
0
230
1
0
SPLINE
5
114
100
AcDbEntity
8
0
100
AcDbSpline
70
0
71
3
72
16
73
12
74
0
42
0.000000001
43
0.0000000001
44
0.0000000001
40
0
40
0
40
0
40
0
40
0.1913508234609238
40
0.25513443128123175
40
0.31891803910153971
40
0.3827016469218476
40
0.41459345083200161
40
0.44648525474215556
40
0.46243115669723256
40
0.47837705865230951
40
0.51026886256246351
40
0.51026886256246351
40
0.51026886256246351
40
0.51026886256246351
10
3.4599124724193473
20
-3.5788618573715052
30
0
10
3.3441970841559119
20
-3.9813496581855827
30
0
10
3.3811720382911195
20
-4.4532298997382043
30
0
10
3.6032871044127699
20
-4.9882619283724319
30
0
10
3.7750379447484783
20
-5.2981486446186805
30
0
10
3.9383248161596964
20
-5.5515388258517246
30
0
10
4.0739092532844108
20
-5.7539967860095356
30
0
10
4.1592217377640939
20
-5.8809838020163383
30
0
10
4.2269320587951196
20
-5.9831680365475064
30
0
10
4.2939508505120569
20
-6.0858864951211586
30
0
10
4.3436330677713668
20
-6.1632286014767406
30
0
10
4.3767314136921573
20
-6.2146114800937005
30
0
0
SPLINE
5
115
100
AcDbEntity
8
0
100
AcDbSpline
70
0
71
3
72
15
73
11
74
0
42
0.000000001
43
0.0000000001
44
0.0000000001
40
0
40
0
40
0
40
0
40
0.025300877000787494
40
0.050601754001574989
40
0.075902631002362483
40
0.10120350800314998
40
0.15180526200472497
40
0.20240701600629996
40
0.25300877000787492
40
0.40481403201259991
40
0.40481403201259991
40
0.40481403201259991
40
0.40481403201259991
10
3.5160826491814494
20
-6.1202993078379038
30
0
10
3.4934850768780978
20
-6.0665401365244138
30
0
10
3.4482734521513358
20
-5.9590608680126769
30
0
10
3.379522095792177
20
-5.7993243281267963
30
0
10
3.3121118909496636
20
-5.64068465474426
30
0
10
3.2265627981132874
20
-5.4303853309746959
30
0
10
3.1327564003321315
20
-5.1692114237712605
30
0
10
3.0570585746274217
20
-4.8567349622711955
30
0
10
3.0188132901619222
20
-4.3344968358644813
30
0
10
3.171220996670761
20
-3.9096068819787653
30
0
10
3.4599124724193473
20
-3.5788618573715052
30
0
0
SPLINE
5
116
100
AcDbEntity
8
0
100
AcDbSpline
70
0
71
3
72
8
73
4
74
0
42
0.000000001
43
0.0000000001
44
0.0000000001
40
0
40
0
40
0
40
0
40
0.3785476137337338
40
0.3785476137337338
40
0.3785476137337338
40
0.3785476137337338
10
1.8247407016431436
20
-4.6019693322975339
30
0
10
2.078596627814461
20
-5.457329070485935
30
0
10
2.7592572416110857
20
-5.8778845782288007
30
0
10
3.5160826491814485
20
-6.120299307837902
30
0
0
SPLINE
5
117
100
AcDbEntity
8
0
100
AcDbSpline
70
0
71
3
72
16
73
12
74
0
42
0.000000001
43
0.0000000001
44
0.0000000001
40
0
40
0
40
0
40
0
40
0.023807082462839239
40
0.047614164925678479
40
0.071421247388517711
40
0.095228329851356958
40
0.14284249477703542
40
0.19045665970271392
40
0.23807082462839238
40
0.28568498955407085
40
0.38091331940542783
40
0.38091331940542783
40
0.38091331940542783
40
0.38091331940542783
10
3.3418566153347116
20
-6.6900850393968412
30
0
10
3.2849988772479919
20
-6.673279902180572
30
0
10
3.171670903434566
20
-6.6363354394100593
30
0
10
3.0024263218997826
20
-6.5696777671564153
30
0
10
2.8353104190581417
20
-6.4916669754858516
30
0
10
2.618330904654965
20
-6.3730939126979615
30
0
10
2.3631843853162464
20
-6.1983476390106036
30
0
10
2.0994833150004912
20
-5.9488805366840918
30
0
10
1.8949673953634327
20
-5.6622932730421009
30
0
10
1.7234877528175434
20
-5.2342274836059621
30
0
10
1.7338146583647362
20
-4.8654695151858878
30
0
10
1.8247407016431436
20
-4.6019693322975339
30
0
0
SPLINE
5
118
100
AcDbEntity
8
0
100
AcDbSpline
70
0
71
3
72
8
73
4
74
0
42
0.000000001
43
0.0000000001
44
0.0000000001
40
0
40
0
40
0
40
0
40
0.34865294727801172
40
0.34865294727801172
40
0.34865294727801172
40
0.34865294727801172
10
1.3752710352129789
20
-6.4970623485029613
30
0
10
2.0053310615054345
20
-6.8575172766627412
30
0
10
2.6921249377358034
20
-6.8750887735786046
30
0
10
3.3418566153347116
20
-6.6900850393968412
30
0
0
SPLINE
5
119
100
AcDbEntity
8
0
100
AcDbSpline
70
0
71
3
72
14
73
10
74
0
42
0.000000001
43
0.0000000001
44
0.0000000001
40
0
40
0
40
0
40
0
40
0.026493888184090215
40
0.052987776368180431
40
0.10597555273636086
40
0.15896332910454131
40
0.21195110547272172
40
0.31792665820908261
40
0.42390221094544345
40
0.42390221094544345
40
0.42390221094544345
40
0.42390221094544345
10
4.0297156841711743
20
-7.0713902583300445
30
0
10
3.9715363121728782
20
-7.0933239449391312
30
0
10
3.8538637330955572
20
-7.1344061218861752
30
0
10
3.6137870896485174
20
-7.2056407049801505
30
0
10
3.3071727331048413
20
-7.2721495337454449
30
0
10
2.9375585777392397
20
-7.3071991818991693
30
0
10
2.4540078888773147
20
-7.2829384503847399
30
0
10
1.8885992335157193
20
-7.0981436952055503
30
0
10
1.5240567907675648
20
-6.7400492444872828
30
0
10
1.3752710352129789
20
-6.4970623485029613
30
0
0
SPLINE
5
120
100
AcDbEntity
8
0
100
AcDbSpline
70
0
71
3
72
16
73
12
74
0
42
0.000000001
43
0.0000000001
44
0.0000000001
40
0.56667089201987864
40
0.56667089201987864
40
0.56667089201987864
40
0.56667089201987864
40
0.72916930751242415
40
0.78333544600993932
40
0.83750158450745449
40
0.89166772300496966
40
0.91875079225372724
40
0.94583386150248483
40
0.95937539612686362
40
0.97291693075124241
40
1
40
1
40
1
40
1
10
6.7122541229173383
20
-7.3412570877446415
30
0
10
6.4408583832949597
20
-7.5024111928577941
30
0
10
5.9555106546735006
20
-7.6402562264644622
30
0
10
5.3148583080565865
20
-7.6457542904912605
30
0
10
4.9374605023441136
20
-7.5951679746500727
30
0
10
4.6431119999058135
20
-7.5049050632959693
30
0
10
4.4283120311625526
20
-7.4019106704289355
30
0
10
4.3044749139391829
20
-7.3243079237340005
30
0
10
4.2127107142408322
20
-7.254057175411166
30
0
10
4.1262304229513562
20
-7.1782451398204516
30
0
10
4.0670313231202968
20
-7.1154781510531615
30
0
10
4.0297156841711752
20
-7.0713902583300472
30
0
0
SPLINE
5
121
100
AcDbEntity
8
0
100
AcDbSpline
70
0
71
3
72
8
73
4
74
0
42
0.000000001
43
0.0000000001
44
0.0000000001
40
0.65205560819637287
40
0.65205560819637287
40
0.65205560819637287
40
0.65205560819637287
40
1
40
1
40
1
40
1
10
4.8367915536897224
20
-6.8623852487242019
30
0
10
5.2447915317782314
20
-7.3394050070831724
30
0
10
5.5855916708618611
20
-7.3794425476741363
30
0
10
6.7122541229173383
20
-7.3412570877446415
30
0
0
SPLINE
5
122
100
AcDbEntity
8
0
100
AcDbSpline
70
0
71
3
72
8
73
4
74
0
42
0.000000001
43
0.0000000001
44
0.0000000001
40
0.58261918910172739
40
0.58261918910172739
40
0.58261918910172739
40
0.58261918910172739
40
1
40
1
40
1
40
1
10
6.7422572746746985
20
-4.9470055775071913
30
0
10
7.050257200220436
20
-6.7760246334271512
30
0
10
5.9094849420874871
20
-6.8776366174780748
30
0
10
4.8367915536897224
20
-6.8623852487242019
30
0
0
SPLINE
5
123
100
AcDbEntity
8
0
100
AcDbSpline
70
0
71
3
72
12
73
8
74
0
42
0.000000001
43
0.0000000001
44
0.0000000001
40
0.65881897679130474
40
0.65881897679130474
40
0.65881897679130474
40
0.65881897679130474
40
0.70146660469239164
40
0.74411423259347864
40
0.82940948839565243
40
0.91470474419782621
40
1
40
1
40
1
40
1
10
5.2445370890200849
20
-6.2925923923540035
30
0
10
5.3319044277343091
20
-6.2756390541274216
30
0
10
5.5060915533609238
20
-6.2313873326574463
30
0
10
5.8448847947349742
20
-6.1015387438228519
30
0
10
6.2329400837687121
20
-5.8643364151798458
30
0
10
6.5880939410842005
20
-5.4667977073208593
30
0
10
6.7151528644104186
20
-5.131241228515135
30
0
10
6.7422572746746985
20
-4.9470055775071913
30
0
0
SPLINE
5
124
100
AcDbEntity
8
0
100
AcDbSpline
70
0
71
3
72
14
73
10
74
0
42
0.000000001
43
0.0000000001
44
0.0000000001
40
0.63298966879192742
40
0.63298966879192742
40
0.63298966879192742
40
0.63298966879192742
40
0.72474225159394556
40
0.77061854299495458
40
0.81649483439596371
40
0.86237112579697284
40
0.90824741719798185
40
0.95412370859899087
40
1
40
1
40
1
40
1
10
5.6118979006584233
20
-3.9925370744551012
30
0
10
5.7718402781180647
20
-4.1840326220771979
30
0
10
5.9119707020524874
20
-4.4869841587986983
30
0
10
5.9418044921098456
20
-4.8988198979134596
30
0
10
5.8963151742264595
20
-5.2057686975626432
30
0
10
5.7936050349179888
20
-5.5049075967940366
30
0
10
5.6442984882185687
20
-5.790368807887015
30
0
10
5.4590925361976375
20
-6.0562318237142501
30
0
10
5.3186392986786002
20
-6.2165928235904762
30
0
10
5.2445370890200849
20
-6.2925923923540035
30
0
0
SPLINE
5
125
100
AcDbEntity
8
0
100
AcDbSpline
70
0
71
3
72
8
73
4
74
0
42
0.000000001
43
0.0000000001
44
0.0000000001
40
0.54305612569375128
40
0.54305612569375128
40
0.54305612569375128
40
0.54305612569375128
40
1
40
1
40
1
40
1
10
4.3767314136921573
20
-6.2146114800937005
30
0
10
5.1291868804230978
20
-5.7250612072632796
30
0
10
5.6887150201570673
20
-4.9737277742158277
30
0
10
5.6118979006584233
20
-3.9925370744551003
30
0
0
CIRCLE
5
126
100
AcDbEntity
8
0
100
AcDbCircle
10
4.0297156841711743
20
-6.1963902583300445
30
0
40
0.074750000000000066
210
0
220
0
230
1
0
CIRCLE
5
127
100
AcDbEntity
8
0
100
AcDbCircle
10
4.0297156841711743
20
-6.8213902583300445
30
0
40
0.074750000000000066
210
0
220
0
230
1
0
ENDSEC
0
SECTION
2
OBJECTS
0
DICTIONARY
5
C
100
AcDbDictionary
3
ACAD_GROUP
350
D
3
ACAD_MLINESTYLE
350
17
0
DICTIONARY
5
D
100
AcDbDictionary
0
DICTIONARY
5
1A
330
C
100
AcDbDictionary
0
DICTIONARY
5
17
100
AcDbDictionary
0
ENDSEC
0
EOF
